<?xml version="1.0" encoding="utf-8"?>
<!-- Generator: Adobe Illustrator 25.0.0, SVG Export Plug-In . SVG Version: 6.00 Build 0)  -->
<svg version="1.1" id="Capa_1" xmlns="http://www.w3.org/2000/svg" xmlns:xlink="http://www.w3.org/1999/xlink" x="0px" y="0px"
	 viewBox="0 0 403.8 130.7" style="enable-background:new 0 0 403.8 130.7;" xml:space="preserve">
<style type="text/css">
	.st0{fill:#EDEDED;}
</style>
<g>
	<path class="st0" d="M1.7,118.07c0-3.06,0.94-6.72,2.84-10.96c2.58-5.73,3.99-9.9,4.25-12.49c0-0.63-0.56-1.33-1.68-2.12
		c-1.2-0.86-1.8-1.53-1.8-2s0.17-0.86,0.52-1.18c0.34-0.47,1.24-0.83,2.71-1.06c1.46-0.31,2.28-0.75,2.45-1.3
		c1.55-3.85,3.99-11.15,7.35-21.92c1.46-4.71,2.81-8.82,4.06-12.31c1.24-3.49,2.43-6.5,3.54-9.01c0.52-1.1,1.59-1.65,3.22-1.65
		c1.2,0,2.28,0.35,3.22,1.06c2.4,1.89,3.95,4.71,4.64,8.49c0.26,1.57,0.52,3.18,0.77,4.83s0.47,3.26,0.64,4.83
		c2.15,9.27,4.34,17.7,6.57,25.27c2.23,7.58,4.51,14.44,6.83,20.56c0.52,1.34,0.77,2.44,0.77,3.3c0,1.57-0.73,2.95-2.19,4.12
		c-1.37,1.1-2.36,1.65-2.96,1.65c-4.21-0.71-6.87-3.81-7.99-9.31c-1.12-5.97-2.54-10.96-4.25-14.96l-8.76,0.71
		c-3.35,0.39-5.97,1.34-7.86,2.83c-0.43,1.26-0.97,2.95-1.61,5.07c-0.64,2.12-1.35,4.75-2.13,7.89c-1.46,5.81-2.88,10.17-4.25,13.08
		c-0.43,0.94-1.29,1.41-2.58,1.41c-0.26,0-0.54,0-0.84,0c-0.3,0-0.62-0.08-0.97-0.24c-2.83-0.79-4.34-1.96-4.51-3.54V118.07z
		 M38.94,23.69c-2.15,2.2-4.27,4.42-6.38,6.66c-2.11,2.24-4.23,4.58-6.38,7.01c-1.37,1.73-3.48,2.24-6.31,1.53
		c-1.12-0.24-1.68-0.82-1.68-1.77c0-0.71,0.47-2,1.42-3.89c2.15-3.85,5.37-8.68,9.67-14.49c3.01-4.01,5.43-7.19,7.28-9.54
		c1.85-2.36,3.11-3.97,3.8-4.83c0.52-0.71,1.24-1.06,2.19-1.06c1.46,0,2.56,0.51,3.29,1.53c0.73,1.02,1.05,2.12,0.97,3.3
		C46.37,13.01,43.75,18.19,38.94,23.69z M33.01,84.61c-0.17-1.57-0.39-3.16-0.64-4.77c-0.26-1.61-0.6-3.28-1.03-5.01
		c-0.43-1.57-0.84-3.14-1.22-4.71c-0.39-1.57-0.79-3.14-1.22-4.71c-2.58,6.6-4.81,13.12-6.7,19.56
		C23.56,84.73,27.17,84.61,33.01,84.61z"/>
	<path class="st0" d="M74.64,109.35c-1.72-0.08-3.35-0.78-4.9-2.12c-1.55-1.33-2.32-2.75-2.32-4.24c0-1.02,0.43-1.9,1.29-2.65
		c0.86-0.75,1.76-1.12,2.71-1.12l4.9,0.35c1.89,0.39,3.05,1.34,3.48,2.83c0.34,1.18,0.52,2.16,0.52,2.95c0,1.49-0.43,2.53-1.29,3.12
		c-0.86,0.59-1.98,0.88-3.35,0.88H74.64z"/>
	<path class="st0" d="M105.56,106.41c0.34-4.01,0.54-7.62,0.58-10.84c0.04-3.22,0.24-6.09,0.58-8.6c-0.86-0.47-1.57-1.02-2.13-1.65
		c-0.56-0.63-0.84-1.33-0.84-2.12c0-0.86,0.49-1.69,1.48-2.48c0.99-0.78,1.87-1.26,2.64-1.41c0.34-3.77,0.6-7.42,0.77-10.96
		c0.17-3.53,0.26-7.07,0.26-10.6c0-1.96-0.04-3.91-0.13-5.83c-0.09-1.92-0.3-3.79-0.64-5.6c-3.78-0.63-6.31-2.28-7.6-4.95
		c0-1.89,0.75-3.1,2.25-3.65c1.5-0.55,3.03-0.82,4.58-0.82c0.6,0,1.68,0.02,3.22,0.06c1.55,0.04,3.33,0.2,5.35,0.47
		c2.02,0.28,4.17,0.71,6.44,1.3c2.28,0.59,4.53,1.4,6.77,2.42c6.53,3.14,11.04,6.21,13.53,9.19c2.49,2.99,3.74,6.01,3.74,9.07
		c0,0.31-0.02,0.65-0.06,1c-0.04,0.35-0.11,0.73-0.19,1.12c-0.52,2.04-1.42,3.93-2.71,5.66c-1.29,1.73-2.81,3.34-4.58,4.83
		c-1.76,1.49-3.67,2.89-5.73,4.18c-2.06,1.3-4.17,2.57-6.31,3.83l-2.32,1.41c0.69,1.02,1.5,1.79,2.45,2.3
		c0.94,0.51,2.06,1.04,3.35,1.59l1.29,0.35c7.04,4.32,10.57,9.39,10.57,15.2c0,4.24-1.4,8.11-4.19,11.61
		c-2.79,3.49-6.81,6.62-12.05,9.37l-12.37,6.6c-0.86,0.55-1.89,0.82-3.09,0.82c-2.66,0-4.3-1.06-4.9-3.18V106.41z M117.93,116.19
		c0.94-0.79,1.85-1.47,2.71-2.06c0.86-0.59,1.72-1.2,2.58-1.83c2.58-1.81,4.4-3.44,5.48-4.89c1.07-1.45,1.91-3.32,2.51-5.6
		c0.08-0.39,0.15-0.8,0.19-1.24c0.04-0.43,0.06-0.84,0.06-1.24c0-2.36-0.9-4.44-2.71-6.25c-2.15-1.33-3.95-2.28-5.41-2.83
		c-1.46-0.55-2.54-0.82-3.22-0.82c-0.43,0-0.9,0-1.42,0c-0.52,0-1.03,0.08-1.55,0.23c-0.17,3.54-0.34,6.8-0.52,9.78
		c-0.17,2.99-0.26,5.97-0.26,8.96c0,1.26,0.06,2.49,0.19,3.71c0.13,1.22,0.28,2.57,0.45,4.07H117.93z M119.87,73.18
		c0.43-0.16,1.03-0.41,1.8-0.77c0.77-0.35,1.46-0.73,2.06-1.12l2.32-1.77c1.2-0.55,2.36-1.31,3.48-2.3c1.12-0.98,2.08-2.04,2.9-3.18
		c0.81-1.14,1.48-2.34,2-3.59c0.52-1.26,0.77-2.48,0.77-3.65c0-0.16-0.02-0.35-0.06-0.59c-0.04-0.23-0.06-0.43-0.06-0.59
		c-0.43-2.9-3.14-5.14-8.12-6.72c-0.17-0.08-0.5-0.23-0.97-0.47c-0.47-0.23-1.01-0.51-1.61-0.82c-0.6-0.31-1.22-0.59-1.87-0.83
		c-0.64-0.23-1.14-0.35-1.48-0.35c-0.26,0-0.5,0.02-0.71,0.06c-0.22,0.04-0.54,0.1-0.97,0.18c-0.09,0.63-0.13,1.3-0.13,2
		c0,0.71,0,1.45,0,2.24c0,3.14-0.09,6.66-0.26,10.54c-0.17,3.89-0.26,7.95-0.26,12.2L119.87,73.18z"/>
	<path class="st0" d="M156.46,81.66c0.17-0.71,0.82-1.33,1.93-1.89c1.29-0.63,2.02-1.26,2.19-1.89c0.08-0.31,0.21-1.37,0.39-3.18
		c0.17-1.81,0.39-4.48,0.64-8.01c-4.73-0.78-7.09-2.43-7.09-4.95c0.08-2.28,1.59-4.08,4.51-5.42l8.25-3.06
		c1.63-0.79,3.43-1.49,5.41-2.12c1.98-0.63,4.17-1.26,6.57-1.88c2.15-0.55,4.25-1.06,6.31-1.53c2.06-0.47,4.17-0.94,6.31-1.41
		c0.17-0.08,0.69-0.12,1.55-0.12c2.32,0,5.03,0.83,8.12,2.48c0.08,0.31,0.3,0.9,0.64,1.77c0.34,0.86,0.52,1.49,0.52,1.88
		c0,0.71-0.3,1.22-0.9,1.53c-1.63,0.63-3.61,1.28-5.93,1.94c-2.32,0.67-5.03,1.39-8.12,2.18c-3.09,0.79-5.8,1.51-8.12,2.18
		s-4.3,1.32-5.93,1.94c-0.34,0.94-0.67,2.55-0.97,4.83c-0.3,2.28-0.54,5.23-0.71,8.84c1.37,0.47,2.96,0.71,4.77,0.71
		c0.69,0,1.52-0.06,2.51-0.18c0.99-0.12,2.17-0.25,3.54-0.41c1.37-0.16,2.56-0.29,3.54-0.41c0.99-0.12,1.82-0.18,2.51-0.18
		c2.4,0,4.47,0.47,6.19,1.41c1.2,1.57,1.8,2.59,1.8,3.06c0,0.55-0.3,0.98-0.9,1.3c-0.09,0.08-0.28,0.23-0.58,0.47
		c-0.3,0.23-0.71,0.63-1.22,1.18c-0.52,0.63-1.37,0.94-2.58,0.94c-1.8,0.31-5.11,0.55-9.92,0.71c-4.04,0.16-7.26,0.63-9.66,1.41
		c-1.63,5.5-2.45,10.1-2.45,13.79c0,2.12,0.34,3.93,1.03,5.42c3.52,2.28,9.32,3.42,17.4,3.42c0.6,0,1.18-0.02,1.74-0.06
		c0.56-0.04,1.18-0.06,1.87-0.06c0.69,0,1.42-0.29,2.19-0.88c0.77-0.59,1.42-0.88,1.93-0.88c0.17,0,0.3-0.02,0.39-0.06
		c0.08-0.04,0.21-0.06,0.39-0.06c2.06,0,3.39,1.69,3.99,5.07c0,0.16,0.02,0.31,0.06,0.47c0.04,0.16,0.06,0.31,0.06,0.47
		c0,1.1-0.37,2.06-1.1,2.89c-0.73,0.82-1.7,1.28-2.9,1.35c-0.77,0-1.55,0.02-2.32,0.06c-0.77,0.04-1.55,0.06-2.32,0.06
		c-8.25,0-15.72-0.79-22.42-2.36c-2.41-0.55-4.6-1.77-6.57-3.65c-1.98-1.88-3.09-4-3.35-6.36c-0.17-1.73-0.32-3.38-0.45-4.95
		c-0.13-1.57-0.19-3.14-0.19-4.71c0-1.57,0.06-3.08,0.19-4.54c0.13-1.45,0.28-2.85,0.45-4.18c-2.15-1.41-3.22-2.71-3.22-3.89V81.66z
		"/>
	<path class="st0" d="M214.84,117.95c-0.26-4.32-0.39-8.91-0.39-13.79c0-8.32,0.52-18.73,1.55-31.23l2.71-31.58
		c0.08-1.73,1.76-2.59,5.03-2.59c0.69,0,1.63,0.24,2.83,0.71c1.2,0.47,2.49,1.22,3.87,2.24c1.37,2.44,2.92,5.58,4.64,9.43
		c1.72,3.85,3.56,8.48,5.54,13.9c1.98,5.19,3.89,10.13,5.74,14.85c1.85,4.71,3.59,8.84,5.22,12.37l5.16-51.14
		c0.17-1.57,1.42-2.36,3.74-2.36c0.77,0,1.68,0.12,2.71,0.35l2.45,0.59c0.86,0.32,1.42,0.87,1.67,1.65l-3.48,31.7
		c-0.69,6.36-1.22,12.14-1.61,17.32c-0.39,5.19-0.58,9.9-0.58,14.14c0,1.34,0,2.69,0,4.06c0,1.37,0.08,2.81,0.26,4.3
		c0,1.18-0.54,2.22-1.61,3.12c-1.08,0.9-2.26,1.36-3.54,1.36c-2.66,0-4.9-1.65-6.7-4.95c-1.37-2.43-2.88-5.44-4.51-9.01
		c-1.63-3.57-3.37-7.52-5.22-11.84c-1.85-4.32-3.76-8.96-5.73-13.9c-1.98-4.95-3.99-10.05-6.06-15.32
		c-0.17-0.47-0.39-0.71-0.64-0.71c-0.6,0-0.99,0.55-1.16,1.65c-0.34,2.83-0.6,5.87-0.77,9.13c-0.17,3.26-0.28,6.62-0.32,10.07
		c-0.04,3.46-0.06,6.91-0.06,10.37c0,3.46,0,6.72,0,9.78c0,2.99,0.04,5.99,0.13,9.01c0.08,3.02,0.21,6.11,0.39,9.25v0.47
		c0,2.12-0.73,3.54-2.19,4.24c-0.6,0.55-1.25,0.82-1.93,0.82c-0.69,0-1.46-0.23-2.32-0.71l-2.45-1.06c-1.12-0.31-1.8-1.26-2.06-2.83
		L214.84,117.95z"/>
	<path class="st0" d="M294.22,53.15c0.08,1.1,0.15,2.24,0.19,3.42c0.04,1.18,0.06,2.4,0.06,3.65c0,2.67-0.15,6.01-0.45,10.02
		c-0.3,4.01-0.75,8.72-1.35,14.14c-0.6,5.42-1.05,10.15-1.35,14.2c-0.3,4.05-0.45,7.44-0.45,10.19c0,1.02,0,2.02,0,3
		c0,0.98,0.04,1.98,0.13,3c-0.77,2.12-2.45,3.18-5.03,3.18c-3.7-0.16-5.71-1.61-6.06-4.36c-0.17-1.33-0.3-2.73-0.39-4.18
		c-0.09-1.45-0.13-2.96-0.13-4.54c0-2.67,0.17-5.97,0.52-9.9c0.34-3.93,0.86-8.6,1.55-14.02c0.69-5.42,1.22-10.08,1.61-13.96
		c0.39-3.89,0.58-7.17,0.58-9.84c0-1.02-0.02-2.02-0.06-3.01c-0.04-0.98-0.11-1.98-0.19-3c0.86-1.49,2.32-2.24,4.38-2.24
		c1.55,0,3.18,0.43,4.9,1.3c0.34-0.24,0.6-0.35,0.77-0.35c0.26,0,0.39,0.39,0.39,1.18c-0.09,0.31-0.13,0.71-0.13,1.18
		c0,0.32,0.04,0.47,0.13,0.47L294.22,53.15z"/>
	<path class="st0" d="M337.52,113.95c0,0.47-0.02,0.88-0.06,1.24c-0.04,0.35-0.11,0.69-0.19,1c-0.43,1.18-1.29,1.77-2.58,1.77
		c-2.49-0.08-4.53-1.04-6.12-2.89c-1.59-1.85-2.47-3.91-2.64-6.19c-0.26-2.91-0.39-5.97-0.39-9.19c0-5.18,0.39-13.39,1.16-24.63
		c0.34-4.71,0.6-8.93,0.77-12.67c0.17-3.73,0.26-6.97,0.26-9.72v-2.24h-1.67c-1.03,0-2.21,0.04-3.54,0.12
		c-1.33,0.08-2.81,0.24-4.45,0.47c-0.95,0.16-1.68,0.29-2.19,0.41c-0.52,0.12-1.25,0.18-2.19,0.18c-4.12,0-7.56-1.02-10.31-3.06
		c-1.03-1.96-1.55-3.02-1.55-3.18c0-0.63,0.3-1.22,0.9-1.77c1.37-0.39,2.96-0.77,4.77-1.12c1.8-0.35,4.04-0.65,6.7-0.88
		c7.22-0.71,12.8-1.96,16.75-3.77c3.26,0.87,6.7,1.3,10.31,1.3s7.3-0.43,11.08-1.3c0.52-0.08,1.33-0.25,2.45-0.53
		c1.12-0.27,2.28-0.57,3.48-0.88c2.06-0.55,4.08-0.82,6.06-0.82c0.26,0,0.54,0.02,0.84,0.06c0.3,0.04,0.58,0.06,0.84,0.06
		c1.29,0,1.93,0.43,1.93,1.3v0.47c2.32,0,3.48,0.71,3.48,2.12c-0.77,2.83-2.24,4.48-4.38,4.95c-2.75,0.63-6.25,1.32-10.5,2.06
		c-4.25,0.75-9.82,1.63-16.69,2.65c-0.86,9.9-1.5,18.85-1.93,26.87c-0.43,8.01-0.64,15.36-0.64,22.03c0,2.52,0.02,4.97,0.06,7.36
		c0.04,2.4,0.11,4.81,0.19,7.25V113.95z"/>
	<path class="st0" d="M400.53,87.32c-1.29,2.75-2.83,5.28-4.64,7.6c-1.8,2.32-3.76,4.32-5.86,6.01c-2.11,1.69-4.38,3-6.83,3.95
		c-2.45,0.94-4.96,1.41-7.54,1.41c-1.8,0-3.85-0.43-6.12-1.3c-2.28-0.86-4.43-2.16-6.44-3.89c-2.02-1.73-3.74-3.83-5.16-6.3
		c-1.42-2.48-2.13-5.36-2.13-8.66c0-2.59,0.54-5.6,1.61-9.02c1.07-3.42,2.49-6.66,4.25-9.72c1.76-3.06,3.8-5.66,6.12-7.78
		c2.32-2.12,4.72-3.18,7.22-3.18c0.6,0,1.1,0.08,1.48,0.23c0.39,0.16,0.81,0.35,1.29,0.59c0.47,0.24,1.05,0.55,1.74,0.94
		c0.69,0.39,1.63,0.82,2.83,1.3c0.77,0.31,1.65,0.65,2.64,1c0.99,0.35,2.17,0.73,3.54,1.12c2.58,0.79,4.72,2.04,6.44,3.77
		c1.72,1.73,3.09,3.59,4.12,5.6c1.03,2,1.74,3.97,2.13,5.89c0.39,1.93,0.58,3.48,0.58,4.65C401.82,83.82,401.39,85.75,400.53,87.32z
		 M390.23,80.01c-0.43-3.14-1.14-5.67-2.13-7.6c-0.99-1.92-2.34-2.89-4.06-2.89c-0.51,0-1.18,0.29-2,0.88
		c-0.82,0.59-1.63,1.24-2.45,1.94c-0.82,0.71-1.59,1.35-2.32,1.94c-0.73,0.59-1.22,0.88-1.48,0.88c-0.69,0-1.5-0.31-2.45-0.94
		c-0.95-0.63-1.59-0.94-1.93-0.94c-0.86,0-1.61,0.41-2.26,1.24c-0.64,0.82-1.18,1.81-1.61,2.95c-0.43,1.14-0.75,2.36-0.97,3.65
		s-0.32,2.42-0.32,3.36c0,2.04,0.34,3.89,1.03,5.54c0.69,1.65,1.5,3.06,2.45,4.24c0.94,1.18,1.91,2.08,2.9,2.71
		c0.99,0.63,1.74,0.94,2.26,0.94c1.63,0,3.35-0.53,5.16-1.59c1.8-1.06,3.46-2.42,4.96-4.06c1.5-1.65,2.75-3.46,3.74-5.42
		c0.99-1.96,1.48-3.85,1.48-5.66V80.01z"/>
</g>
</svg>
